{"title":"Furious Seven 2015 DVD9rip English Klam","uid":11910190,"size":2307783916,"categoryP":"video","categoryS":"movies","magnet":"?xt=urn:btih:dd534bb7426b889abd2e2ee9ddaba42b71525fb8&amp;dn=Furious+Seven+2015+DVD9rip+English+Klam&amp;tr=udp%3A%2F%2Ftracker.openbittorrent.com%3A80&amp;tr=udp%3A%2F%2Fopen.demonii.com%3A1337&amp;tr=udp%3A%2F%2Ftracker.coppersurfer.tk%3A6969&amp;tr=udp%3A%2F%2Fexodus.desync.com%3A6969","seeders":7,"leechers":2,"uploader":"Klambake","files":6,"time":1431465624,"description":" &lt;a href=&quot;http://i.imgur.com/F2z3QkX.jpg&quot; rel=&quot;nofollow&quot; target=&quot;_NEW&quot;&gt;http://i.imgur.com/F2z3QkX.jpg&lt;/a&gt;\n\nWith: Vin Diesel, Paul Walker and Michelle Rodriguez\n\nNu Owen Shaw is uitgeschakeld door Dominic Toretto en zijn crew, is Shaw's broer Deckard Shaw uit op wraak. Na de dood van Han, is ook Dominic uit op wraak. Samen met zijn crew en &quot;Mr. Nobody&quot; gaan ze op zoek naar een hackprogramma genaamd 'God's Eye', om zo achter Deckard's locatie te kunnen komen en hem uit te schakelen.\n\nDeckard Shaw seeks revenge against Dominic Toretto and his family for his comatose brother.\n &lt;a href=&quot;\nhttp://www.imdb.com/title/tt2820852&quot; rel=&quot;nofollow&quot; target=&quot;_NEW&quot;&gt;\nhttp://www.imdb.com/title/tt2820852&lt;/a&gt;\n\n--------------------- Dutch Friends 4ever ---------------------\n---------------------------------------------------------------\n- Bezoek ook eens mijn vrienden op: &lt;a href=&quot; http://www.Film-Test.nl&quot; rel=&quot;nofollow&quot; target=&quot;_NEW&quot;&gt; http://www.Film-Test.nl&lt;/a&gt; --\n----- voor mijn Nederlandse Sync. ondertitels ---- en meer ----\n------- http://www.Film-Test.nl ---- Over Films en meer -------\n---------------------------------------------------------------\n &lt;a href=&quot;\nhttp://i.imgur.com/LdQGGET.jpg&quot; rel=&quot;nofollow&quot; target=&quot;_NEW&quot;&gt;\nhttp://i.imgur.com/LdQGGET.jpg&lt;/a&gt; &lt;a href=&quot;\nhttp://i.imgur.com/MQwM3cd.jpg&quot; rel=&quot;nofollow&quot; target=&quot;_NEW&quot;&gt;\nhttp://i.imgur.com/MQwM3cd.jpg&lt;/a&gt; &lt;a href=&quot;\nhttp://i.imgur.com/cR4HkI2.jpg&quot; rel=&quot;nofollow&quot; target=&quot;_NEW&quot;&gt;\nhttp://i.imgur.com/cR4HkI2.jpg&lt;/a&gt;\n\nGeneral:\n\nComplete name                            : Furious SevenFurious seven.avi\nFormat                                   : AVI\nFormat/Info                              : Audio Video Interleave\nFile size                                : 2.15 GiB\nDuration                                 : 2h 17mn\nOverall bit rate                         : 2 242 Kbps\n\nVideo:\n\nFormat                                   : MPEG-4 Visual\nFormat profile                           : Simple@L3\nFormat settings, BVOP                    : No\nFormat settings, QPel                    : No\nFormat settings, GMC                     : No warppoints\nFormat settings, Matrix                  : Default (H.263)\nCodec ID                                 : XVID\nCodec ID/Hint                            : XviD\nDuration                                 : 2h 17mn\nSource duration                          : 2h 17mn\nBit rate                                 : 1 784 Kbps\nWidth                                    : 720 pixels\nHeight                                   : 304 pixels\nDisplay aspect ratio                     : 2.35:1\nFrame rate                               : 25.000 fps\nColor space                              : YUV\nChroma subsampling                       : 4:2:0\nBit depth                                : 8 bits\nScan type                                : Progressive\nCompression mode                         : Lossy\nBits/(Pixel*Frame)                       : 0.326\nStream size                              : 1.71 GiB (80%)\nWriting library                          : XviD 1.1.2 (UTC 2006-11-01)\n\nAudio:\n\nFormat                                   : AC-3\nFormat/Info                              : Audio Coding 3\nMode extension                           : CM (complete main)\nFormat settings, Endianness              : Big\nCodec ID                                 : 2000\nDuration                                 : 2h 17mn\nBit rate mode                            : Constant\nBit rate                                 : 448 Kbps\nChannel(s)                               : 6 channels\nChannel positions                        : Front: L C R, Side: L R, LFE\nSampling rate                            : 48.0 KHz\nBit depth                                : 16 bits\nCompression mode                         : Lossy\nStream size                              : 440 MiB (20%)\nAlignment                                : Aligned on interleaves\nInterleave, duration                     : 32 ms (0.80 video frame)","torrent":{"xt":"urn:btih:dd534bb7426b889abd2e2ee9ddaba42b71525fb8","amp;dn":"Furious+Seven+2015+DVD9rip+English+Klam","amp;tr":["udp%3A%2F%2Ftracker.openbittorrent.com%3A80","udp%3A%2F%2Fopen.demonii.com%3A1337","udp%3A%2F%2Ftracker.coppersurfer.tk%3A6969","udp%3A%2F%2Fexodus.desync.com%3A6969"],"infoHash":"dd534bb7426b889abd2e2ee9ddaba42b71525fb8","infoHashBuffer":{"type":"Buffer","data":[221,83,75,183,66,107,136,154,189,46,46,233,221,171,164,43,113,82,95,184]},"announce":[],"urlList":[]}}